<?xml version="1.0" encoding="UTF-8"?><svg id="Layer_2" xmlns="http://www.w3.org/2000/svg" viewBox="0 0 366.03 163.82"><defs><style>.cls-1{fill:#f3e207;}.cls-2{fill:#f3af88;}.cls-3{fill:aqua;}.cls-4{fill:#00da5f;}.cls-5{fill:blue;}.cls-6{fill:#ff5700;}.cls-7{fill:#fff;}.cls-8{fill:#ffbaff;}.cls-9{fill:#f0f;}</style></defs><g id="Laag_5"><g><path class="cls-7" d="M328.9,160.99h37.13v-53.75c0-16.58-5.36-30.82-15.5-41.17-10.12-10.33-24.02-15.8-40.18-15.8-12.84,0-23.86,3.75-30.26,10.3l-.27,.27-.2-.33c-3.39-5.56-9.29-8.88-15.77-8.88-10.19,0-18.48,8.29-18.48,18.48v90.87h37.13v-49.01c0-7.63,2.59-14.06,7.49-18.57,4.47-4.12,10.65-6.39,17.4-6.39,9.93,0,21.52,6.17,21.52,23.57v50.39Z"/><g><path class="cls-7" d="M1.91,160.74H39.04V70.21c0-10.24-8.33-18.57-18.56-18.57S1.91,59.97,1.91,70.21v90.53Z"/><path class="cls-7" d="M20.47,0C9.18,0,0,9.18,0,20.47s9.18,20.48,20.47,20.48,20.47-9.19,20.47-20.48S31.76,0,20.47,0Z"/><path class="cls-7" d="M82.29,0c-11.29,0-20.47,9.18-20.47,20.47s9.18,20.48,20.47,20.48,20.48-9.18,20.48-20.48S93.58,0,82.29,0Z"/><path class="cls-7" d="M63.72,160.74h37.13V70.21c0-10.24-8.33-18.57-18.56-18.57s-18.56,8.33-18.56,18.57v90.53Z"/></g><g><path class="cls-3" d="M229.5,94.76h-10.35v-11.51h6.69c-5.81-13.25-16.46-23.91-29.71-29.72v6.7h-11.51v-10.34c-3.72-.76-7.57-1.17-11.51-1.17v11.51h-11.51v-10.35c-8.5,1.73-16.32,5.34-23.02,10.38v11.48h-11.48c-7.24,9.62-11.54,21.58-11.54,34.53h11.51v11.51h-10.35c1.73,8.5,5.34,16.32,10.38,23.02h11.48v11.48c9.62,7.24,21.58,11.54,34.53,11.54h0v-11.51h11.51v10.35c8.5-1.73,16.33-5.34,23.02-10.38v-11.48h11.48c7.24-9.62,11.54-21.58,11.54-34.53,0-3.94-.4-7.79-1.16-11.51Z"/><rect class="cls-6" x="138.58" y="71.74" width="11.51" height="11.51"/><rect class="cls-5" x="150.09" y="71.74" width="11.51" height="11.51"/><rect class="cls-5" x="150.09" y="60.23" width="11.51" height="11.51"/><rect class="cls-5" x="173.11" y="71.74" width="11.51" height="11.51"/><rect class="cls-5" x="196.13" y="83.25" width="11.51" height="11.51"/><rect class="cls-5" x="196.13" y="106.27" width="11.51" height="11.51"/><rect class="cls-5" x="207.64" y="83.25" width="11.51" height="11.51"/><rect class="cls-5" x="207.64" y="71.74" width="11.51" height="11.51"/><rect class="cls-5" x="207.64" y="117.78" width="11.51" height="11.51"/><rect class="cls-5" x="184.62" y="117.78" width="11.51" height="11.51"/><rect class="cls-5" x="207.64" y="106.27" width="11.51" height="11.51"/><rect class="cls-5" x="196.13" y="140.8" width="11.51" height="11.51"/><rect class="cls-5" x="184.62" y="140.8" width="11.51" height="11.51"/><rect class="cls-5" x="161.6" y="140.8" width="11.51" height="11.51"/><rect class="cls-5" x="150.09" y="117.78" width="11.51" height="11.51"/><rect class="cls-5" x="196.13" y="129.29" width="11.51" height="11.51"/><rect class="cls-5" x="138.58" y="140.8" width="11.51" height="11.51"/><rect class="cls-5" x="138.58" y="129.29" width="11.51" height="11.51"/><rect class="cls-5" x="127.07" y="129.29" width="11.51" height="11.51"/><rect class="cls-5" x="173.11" y="60.23" width="11.51" height="11.51"/><rect class="cls-5" x="138.58" y="94.76" width="11.51" height="11.51"/><rect class="cls-1" x="138.58" y="106.27" width="11.51" height="11.51"/><rect class="cls-2" x="138.58" y="117.78" width="11.51" height="11.51"/><rect class="cls-2" x="150.09" y="94.76" width="11.51" height="11.51"/><rect class="cls-6" x="150.09" y="140.8" width="11.51" height="11.51"/><rect class="cls-5" x="127.07" y="83.25" width="11.51" height="11.51"/><rect class="cls-5" x="127.07" y="94.76" width="11.51" height="11.51"/><rect class="cls-9" x="127.07" y="117.78" width="11.51" height="11.51"/><rect class="cls-9" x="161.6" y="60.23" width="11.51" height="11.51"/><rect class="cls-2" x="161.6" y="71.74" width="11.51" height="11.51"/><rect class="cls-8" x="196.13" y="71.74" width="11.51" height="11.51"/><rect class="cls-4" x="196.13" y="94.76" width="11.51" height="11.51"/><rect class="cls-9" x="196.13" y="117.78" width="11.51" height="11.51"/><rect class="cls-5" x="184.62" y="60.23" width="11.51" height="11.51"/><rect class="cls-1" x="184.62" y="71.74" width="11.51" height="11.51"/><rect class="cls-2" x="173.11" y="83.25" width="11.51" height="11.51"/><rect class="cls-2" x="173.11" y="129.29" width="11.51" height="11.51"/><path class="cls-6" d="M207.64,152.28c4.34-3.27,8.21-7.13,11.48-11.48h-11.48v11.48Z"/><path class="cls-6" d="M184.62,49.88v10.35h11.51v-6.69c-3.66-1.6-7.51-2.85-11.51-3.66Z"/><path class="cls-5" d="M161.6,60.23h11.51v-11.51h0c-3.94,0-7.79,.4-11.51,1.16v10.35Z"/><path class="cls-9" d="M138.58,71.74v-11.48c-4.34,3.27-8.21,7.14-11.48,11.48h11.48Z"/><path class="cls-5" d="M127.07,117.78v-11.51h-11.51c0,3.94,.4,7.79,1.16,11.51h10.35Z"/><path class="cls-8" d="M138.58,152.28v-11.48h-11.48c3.27,4.34,7.13,8.21,11.48,11.48Z"/><path class="cls-5" d="M173.11,163.82c3.94,0,7.79-.4,11.51-1.16v-10.35h-11.51v11.51Z"/><path class="cls-7" d="M225.84,83.25h-6.69v11.51h10.35c-.82-4-2.06-7.85-3.66-11.51Z"/><g><rect class="cls-7" x="184.62" y="129.29" width="11.51" height="11.51"/><polygon class="cls-7" points="184.62 83.25 184.62 88.44 184.62 94.76 173.11 94.76 173.11 83.25 164.1 83.25 161.6 83.25 150.09 83.25 138.58 83.25 138.58 94.76 150.09 94.76 161.6 94.76 161.6 106.27 155.31 106.27 150.09 106.27 150.09 117.78 155.31 117.78 161.6 117.78 161.6 129.29 161.6 132.52 161.6 140.8 173.11 140.8 173.11 132.52 173.11 129.29 179.32 129.29 184.62 129.29 184.62 117.78 188.18 117.78 188.9 117.78 196.13 117.78 196.13 94.76 196.13 88.44 196.13 83.25 184.62 83.25"/></g></g></g></g></svg>