<?xml version="1.0" encoding="UTF-8"?>
<svg id="Layer_1" xmlns="http://www.w3.org/2000/svg" xmlns:xlink="http://www.w3.org/1999/xlink" version="1.1" viewBox="0 0 14400 14400">
  <!-- Generator: Adobe Illustrator 29.5.1, SVG Export Plug-In . SVG Version: 2.1.0 Build 141)  -->
  <defs>
    <style>
      .st0, .st1, .st2, .st3, .st4, .st5 {
        fill: none;
      }

      .st1, .st2, .st6, .st7, .st8, .st3, .st9, .st10, .st5 {
        stroke-linecap: round;
        stroke-linejoin: round;
      }

      .st1, .st2, .st6, .st7, .st8, .st9, .st10 {
        stroke: #071d49;
      }

      .st1, .st7, .st8, .st3, .st9, .st10 {
        stroke-width: .66px;
      }

      .st2, .st6, .st5 {
        stroke-width: .44px;
      }

      .st6, .st9 {
        fill: #fff;
      }

      .st7 {
        fill: #f5ccde;
      }

      .st11, .Schaduw, .st10 {
        fill: #071d49;
      }

      .st8 {
        fill: #006f2e;
      }

      .st3 {
        stroke: #ce0058;
      }

      .Schaduw {
        fill-opacity: .4;
      }

      .st10, .st5 {
        opacity: .4;
      }

      .st4 {
        stroke: #eb99bc;
        stroke-width: 7px;
      }

      .st4, .st12 {
        stroke-miterlimit: 10;
      }

      .st12 {
        fill: #c02f5e;
        stroke: #151f46;
        stroke-width: 1.38px;
      }

      .st13 {
        clip-path: url(#clippath);
      }

      .st5 {
        stroke: #fff;
      }
    </style>
    <clipPath id="clippath">
      <path class="st1" d="M7487.92,7312.69l-55.04-38.27h0c-4.95-3.59-10.36-7.1-16.21-10.49l-413.83-238.93c-9.87-5.7-25.83-5.7-35.64,0l-39.05,22.69h-65.86s0,44.34,0,44.34h0c.02,3.74,2.5,7.47,7.44,10.32l413.83,238.93c55.5,32.04,130.28,40.7,167.04,19.34.81-.47,1.6-.96,2.36-1.45l34.96-21.46v-25.02Z"/>
    </clipPath>
  </defs>
  <path class="st10" d="M7452.65,7407.9c-38.03,0-81.22-11.83-115.54-31.64l-451.05-260.41c-6.2-3.58-9.62-8.6-9.62-14.13,0-5.51,3.36-10.51,9.5-14.07l97.59-56.71c5.4-3.14,12.5-4.87,19.99-4.87,7.49,0,14.6,1.73,20.03,4.86l451.05,260.41c17.34,10.01,31.62,21.65,41.32,33.65,9.7,12.02,14.84,24.4,14.85,35.82.02,14.29-7.67,26.31-22.23,34.77-13.86,8.05-33.18,12.31-55.88,12.31h0Z"/>
  <line class="st1" x1="7484.7" y1="7336.2" x2="6923.5" y2="7010.07"/>
  <path class="st8" d="M7487.92,7312.69l-55.04-38.27h0c-4.95-3.59-10.36-7.1-16.21-10.49l-413.83-238.93c-9.87-5.7-25.83-5.7-35.64,0l-39.05,22.69h-65.86s0,44.34,0,44.34h0c.02,3.74,2.5,7.47,7.44,10.32l413.83,238.93c55.5,32.04,130.28,40.7,167.04,19.34.81-.47,1.6-.96,2.36-1.45l34.96-21.46v-25.02Z"/>
  <g>
    <g class="st13">
      <path class="Schaduw" d="M7412.38,7488.25l-70.54-78.13c76.11-37.7,112.82-75.94,126.82-114.5l70.54,78.13-126.82,114.5Z"/>
      <path class="Schaduw" d="M7309.97,7422.01l-17.29-19.15c68.41-25.77,110.69-63.93,126.82-114.5l17.29,19.15c-16.24,38.05-62.59,76.24-126.82,114.5Z"/>
    </g>
    <path class="st1" d="M7487.92,7312.69l-55.04-38.27h0c-4.95-3.59-10.36-7.1-16.21-10.49l-413.83-238.93c-9.87-5.7-25.83-5.7-35.64,0l-39.05,22.69h-65.86s0,44.34,0,44.34h0c.02,3.74,2.5,7.47,7.44,10.32l413.83,238.93c55.5,32.04,130.28,40.7,167.04,19.34.81-.47,1.6-.96,2.36-1.45l34.96-21.46v-25.02Z"/>
  </g>
  <path class="st9" d="M7453.88,7241.08l-451.05-260.41c-9.87-5.7-25.83-5.7-35.64,0l-97.59,56.71c-9.81,5.7-9.76,14.94.12,20.64l451.05,260.41c55.5,32.04,130.28,40.7,167.04,19.34,36.76-21.36,21.57-64.65-33.93-96.69Z"/>
  <g>
    <path class="st8" d="M7041.76,7053.42l-15.35-8.86c-1.48-.86-3.31-.85-4.8,0l-27.96,16.25h-7.61v9.03s0,.04,0,.06v.06s0,0,0,0c.03.37.22.72.58.93l22.51,12.99c1.48.86,3.31.85,4.8,0l34.99-20.33c.38-.22.57-.6.58-.98h0v-9.15h-7.75Z"/>
    <path class="st9" d="M6986.63,7059.85l34.99-20.33c1.48-.86,3.31-.86,4.8,0l22.51,12.99c.79.45.79,1.59,0,2.04l-34.99,20.33c-1.48.86-3.31.86-4.8,0l-22.51-12.99c-.79-.45-.79-1.59,0-2.04Z"/>
    <line class="st1" x1="7011.54" y1="7084.53" x2="7011.54" y2="7077.1"/>
    <line class="st1" x1="7012.67" y1="7084.39" x2="7012.67" y2="7081.78"/>
    <path class="st1" d="M7002.09,7055.32l14.83-8.62c1.05-.61,2.34-.61,3.38,0l14.95,8.63c.7.4.7,1.41,0,1.82l-14.83,8.62c-1.05.61-2.34.61-3.38,0l-14.95-8.63c-.7-.4-.7-1.41,0-1.82Z"/>
  </g>
  <g>
    <path class="st8" d="M7459.95,7284.78l-23.55-13.59c-2.28-1.31-5.08-1.31-7.36.01l-42.9,24.93h-11.68v13.85s0,.06,0,.09v.09h.01c.04.56.33,1.11.89,1.43l34.53,19.93c2.28,1.31,5.08,1.31,7.36-.01l53.68-31.2c.58-.34.87-.92.89-1.5h0v-14.04h-11.89Z"/>
    <path class="st9" d="M7375.37,7294.66l53.68-31.2c2.27-1.32,5.08-1.33,7.36-.01l34.53,19.93c1.21.7,1.21,2.44,0,3.14l-53.68,31.2c-2.27,1.32-5.08,1.33-7.36.01l-34.53-19.93c-1.21-.7-1.21-2.44,0-3.14Z"/>
    <line class="st1" x1="7413.58" y1="7332.51" x2="7413.58" y2="7321.13"/>
    <line class="st1" x1="7415.32" y1="7332.3" x2="7415.32" y2="7328.3"/>
    <path class="st1" d="M7399.09,7287.71l22.76-13.23c1.6-.93,3.58-.94,5.19,0l22.93,13.24c1.07.62,1.07,2.17,0,2.79l-22.76,13.23c-1.6.93-3.58.94-5.19,0l-22.93-13.24c-1.07-.62-1.07-2.17,0-2.79Z"/>
  </g>
  <g>
    <path class="st8" d="M7011.4,6957.43l-27.11-15.65c-2.62-1.51-5.85-1.51-8.47.01l-49.39,28.7h-13.44s0,76.25,0,76.25c0,.04,0,.07,0,.11v.1h.01c.05.65.38,1.28,1.02,1.65l39.75,22.95c2.62,1.51,5.85,1.51,8.47-.01l61.8-35.92c.67-.39,1.01-1.05,1.03-1.73h0v-76.46h-13.68Z"/>
    <path class="st9" d="M6914.01,6968.8l61.8-35.92c2.62-1.52,5.85-1.53,8.47-.01l39.75,22.95c1.39.8,1.39,2.8,0,3.61l-61.8,35.92c-2.62,1.52-5.85,1.53-8.47.01l-39.75-22.95c-1.39-.8-1.39-2.8,0-3.61Z"/>
    <g>
      <path class="st1" d="M6965.09,6956.62l-7.54-4.35c-.93-.54-2.43-.54-3.35,0s-.92,1.4,0,1.94l7.54,4.35c.93.54,2.43.54,3.35,0s.92-1.4-.01-1.94"/>
      <path class="st9" d="M6973.38,6914.67h0c.03-.27-.14-.54-.49-.75l-4.43-2.56c-.66-.38-1.72-.38-2.37,0-.27.16-.43.36-.47.56h0s-12.06,41.05-12.06,41.05h0c-.14.43.08.89.66,1.23l7.54,4.35c.93.54,2.43.54,3.35,0,.44-.25.66-.58.68-.91h0s7.59-42.97,7.59-42.97Z"/>
      <path class="Schaduw" d="M6973.38,6914.67c-.02.23-.18.45-.48.63-.13.07-.28.13-.43.18l-8.14,41.18c-.11.97-1.56,1.61-3.93,1.13,3.05,1.78,4.08,1.15,4.71.78.44-.25.66-.58.68-.91h0s7.59-42.97,7.59-42.97h0Z"/>
      <path class="st1" d="M6972.89,6913.92l-4.43-2.56c-.66-.38-1.72-.38-2.37,0s-.65.99,0,1.37l4.43,2.56c.66.38,1.72.38,2.37,0s.65-.99,0-1.37"/>
    </g>
    <line class="st1" x1="6958.01" y1="7072.68" x2="6958.01" y2="7028.98"/>
    <line class="st1" x1="6960.01" y1="7072.43" x2="6960.01" y2="7057.85"/>
    <path class="st1" d="M6926.07,6969.26l13.27-7.71c.94-.54,2.09-.55,3.03,0l13.37,7.72c.63.36.63,1.26,0,1.63l-13.27,7.71c-.94.54-2.09.55-3.03,0l-13.37-7.72c-.63-.36-.63-1.26,0-1.63Z"/>
    <path class="st9" d="M6926.07,6968.07l13.27-7.71c.94-.54,2.09-.55,3.03,0l13.37,7.72c.63.36.63,1.26,0,1.63l-13.27,7.71c-.94.54-2.09.55-3.03,0l-13.37-7.72c-.63-.36-.63-1.26,0-1.63Z"/>
    <polygon class="st1" points="7022.42 7001.79 6961.4 7037.27 6961.4 7044.85 7022.42 7009.38 7022.42 7001.79"/>
    <polygon class="st1" points="6954.97 7036.32 6915.48 7013.35 6915.48 7020.94 6954.97 7043.91 6954.97 7036.32"/>
    <g>
      <line class="st1" x1="6961.4" y1="7037.27" x2="6961.4" y2="7044.85"/>
      <line class="st1" x1="6966.95" y1="7034.04" x2="6966.95" y2="7041.63"/>
      <line class="st1" x1="6972.5" y1="7030.82" x2="6972.5" y2="7038.4"/>
      <line class="st1" x1="6978.04" y1="7027.59" x2="6978.04" y2="7035.18"/>
      <line class="st1" x1="6983.59" y1="7024.37" x2="6983.59" y2="7031.95"/>
      <line class="st1" x1="6989.14" y1="7021.14" x2="6989.14" y2="7028.73"/>
      <line class="st1" x1="6994.68" y1="7017.92" x2="6994.68" y2="7025.5"/>
      <line class="st1" x1="7000.23" y1="7014.69" x2="7000.23" y2="7022.28"/>
      <line class="st1" x1="7005.78" y1="7011.47" x2="7005.78" y2="7019.05"/>
      <line class="st1" x1="7011.33" y1="7008.24" x2="7011.33" y2="7015.83"/>
      <line class="st1" x1="7016.87" y1="7005.02" x2="7016.87" y2="7012.6"/>
      <line class="st1" x1="7022.42" y1="7001.79" x2="7022.42" y2="7009.38"/>
    </g>
    <g>
      <line class="st1" x1="6954.97" y1="7036.32" x2="6954.97" y2="7043.91"/>
      <line class="st1" x1="6949.33" y1="7033.04" x2="6949.33" y2="7040.62"/>
      <line class="st1" x1="6943.69" y1="7029.76" x2="6943.69" y2="7037.34"/>
      <line class="st1" x1="6938.05" y1="7026.48" x2="6938.05" y2="7034.06"/>
      <line class="st1" x1="6932.4" y1="7023.2" x2="6932.4" y2="7030.78"/>
      <line class="st1" x1="6926.76" y1="7019.92" x2="6926.76" y2="7027.5"/>
      <line class="st1" x1="6921.12" y1="7016.64" x2="6921.12" y2="7024.22"/>
      <line class="st1" x1="6915.48" y1="7013.35" x2="6915.48" y2="7020.94"/>
    </g>
    <polygon class="st1" points="6954.97 7023.89 6915.48 7000.92 6915.48 7008.5 6954.97 7031.47 6954.97 7023.89"/>
    <g>
      <line class="st1" x1="6954.97" y1="7023.89" x2="6954.97" y2="7031.47"/>
      <line class="st1" x1="6949.33" y1="7020.6" x2="6949.33" y2="7028.19"/>
      <line class="st1" x1="6943.69" y1="7017.32" x2="6943.69" y2="7024.9"/>
      <line class="st1" x1="6938.05" y1="7014.04" x2="6938.05" y2="7021.62"/>
      <line class="st1" x1="6932.4" y1="7010.76" x2="6932.4" y2="7018.34"/>
      <line class="st1" x1="6926.76" y1="7007.48" x2="6926.76" y2="7015.06"/>
      <line class="st1" x1="6921.12" y1="7004.2" x2="6921.12" y2="7011.78"/>
      <line class="st1" x1="6915.48" y1="7000.92" x2="6915.48" y2="7008.5"/>
    </g>
  </g>
  <g>
    <polygon class="st9" points="7480.58 7293.64 7498.28 7281.37 7495.16 7279.56 7475.74 7290.85 7480.58 7293.64"/>
    <path class="st1" d="M7474.83,7328.31l-7.54-4.35c-.93-.54-2.43-.54-3.35,0s-.92,1.4,0,1.94l7.54,4.35c.93.54,2.43.54,3.35,0s.92-1.4-.01-1.94"/>
    <path class="st9" d="M7483.12,7286.36h0c.03-.27-.14-.54-.49-.75l-4.43-2.56c-.66-.38-1.72-.38-2.37,0-.27.16-.43.36-.47.56h0s-12.06,41.05-12.06,41.05h0c-.14.43.08.89.66,1.23l7.54,4.35c.93.54,2.43.54,3.35,0,.44-.25.66-.58.68-.91h0s7.59-42.97,7.59-42.97Z"/>
    <path class="Schaduw" d="M7483.11,7286.36c-.02.23-.18.45-.48.63-.13.07-.28.13-.43.18l-8.14,41.18c-.11.97-1.56,1.61-3.93,1.13,3.05,1.78,4.08,1.15,4.71.78.44-.25.66-.58.68-.91h0s7.59-42.97,7.59-42.97h0Z"/>
    <path class="st1" d="M7482.62,7285.62l-4.43-2.56c-.66-.38-1.72-.38-2.37,0s-.65.99,0,1.37l4.43,2.56c.66.38,1.72.38,2.37,0s.65-.99,0-1.37"/>
    <polygon class="st9" points="7474.39 7291.63 7454.97 7302.92 7458.09 7304.72 7479.22 7294.42 7474.39 7291.63"/>
  </g>
  <g>
    <polygon class="st1" points="7048.69 6976.9 7034.84 6968.9 7034.84 6941.88 7056.56 6954.42 7048.69 6976.9"/>
    <polygon class="st9" points="6934.62 7000.12 7034.84 6941.88 7056.56 6954.42 6956.34 7012.66 6934.62 7000.12"/>
    <polygon class="st1" points="7034.84 6968.9 6934.62 7027.15 6948.46 7035.14 7048.69 6976.9 7034.84 6968.9"/>
    <polygon class="st8" points="6948.46 7035.14 6934.62 7027.15 6934.62 7000.12 6956.34 7012.66 6948.46 7035.14"/>
    <polygon class="st8" points="6956.34 7012.66 7056.56 6954.42 7048.69 6976.9 6948.46 7035.14 6956.34 7012.66"/>
    <polygon class="Schaduw" points="7052.05 6958.3 7046.13 6975.2 6951.31 7030.31 6950.46 7032.72 7047.79 6976.16 7054.56 6956.84 7052.05 6958.3"/>
    <polygon class="st7" points="7052.05 6958.3 6957.23 7013.4 6951.31 7030.31 7046.13 6975.2 7052.05 6958.3"/>
    <line class="st1" x1="7047.79" y1="6976.16" x2="7046.13" y2="6975.2"/>
    <g>
      <line class="st3" x1="6965.39" y1="7021.3" x2="6970.39" y2="7007.02"/>
      <line class="st3" x1="6981.61" y1="7011.87" x2="6986.61" y2="6997.59"/>
      <line class="st3" x1="6997.83" y1="7002.44" x2="7002.83" y2="6988.16"/>
      <line class="st3" x1="7014.05" y1="6993.02" x2="7019.05" y2="6978.74"/>
      <line class="st3" x1="7030.27" y1="6983.59" x2="7035.27" y2="6969.31"/>
    </g>
  </g>
  <path class="st0" d="M7238.33,7351.79"/>
  <path class="st0" d="M7454.21,7388.5"/>
  <polygon class="st4" points="7224.87 7249.32 7098.19 7176.18 7147.26 7147.85 7273.94 7220.99 7224.87 7249.32"/>
  <polygon class="st4" points="7286.87 7212.32 7160.19 7139.18 7209.26 7110.85 7335.94 7183.99 7286.87 7212.32"/>
  <g>
    <path class="st12" d="M7334.78,7135.12l-36.14,21c-.77.45-1.24,1.27-1.24,2.15l-.03,52.3c0,.89.47,1.71,1.25,2.16l104.5,60.33c.77.45,1.73.44,2.5,0l36.17-21.02c.77-.45,1.24-1.27,1.24-2.15v-52.28c0-.89-.47-1.71-1.25-2.16l-104.5-60.33c-.77-.45-1.73-.44-2.5,0Z"/>
    <g>
      <path class="st2" d="M7407.51,7267.19l2.13-1.24c.31-.18.66-.26,1.02-.23l.6.05"/>
      <path class="st2" d="M7416.82,7261.78l2.13-1.24c.31-.18.66-.26,1.02-.23l.6.05"/>
      <path class="st2" d="M7426.14,7256.37l2.13-1.24c.31-.18.66-.26,1.02-.23l.6.05"/>
      <path class="st2" d="M7435.45,7250.96l2.13-1.24c.31-.18.66-.26,1.02-.23l.6.05"/>
      <line class="st2" x1="7440.26" y1="7201.54" x2="7440.26" y2="7249.52"/>
      <line class="st2" x1="7430.95" y1="7206.96" x2="7430.95" y2="7254.94"/>
      <line class="st2" x1="7421.64" y1="7212.39" x2="7421.64" y2="7260.36"/>
      <line class="st2" x1="7412.33" y1="7217.81" x2="7412.33" y2="7265.78"/>
      <path class="st11" d="M7412.33,7217.81h0c-.59,0-1.07,1.52-1.07,2.11v44.77c0,.59.48,1.07,1.07,1.07h0v-47.95Z"/>
      <path class="st11" d="M7421.64,7212.41h0c-.59,0-1.07,1.52-1.07,2.11v44.77c0,.59.48,1.07,1.07,1.07h0v-47.95Z"/>
      <path class="st11" d="M7430.95,7206.99h0c-.59,0-1.07,1.52-1.07,2.11v44.77c0,.59.48,1.07,1.07,1.07h0v-47.95Z"/>
      <path class="st11" d="M7440.26,7201.57h0c-.59,0-1.07,1.52-1.07,2.11v44.77c0,.59.48,1.07,1.07,1.07h0v-47.95Z"/>
      <path class="st2" d="M7410.37,7219.09l-2.56,1.49c-.19.11-.3.33-.3.57v47.42"/>
      <path class="st2" d="M7419.68,7213.68l-2.56,1.49c-.19.11-.3.33-.3.57v47.42"/>
      <path class="st2" d="M7429,7208.27l-2.56,1.49c-.19.11-.3.33-.3.57v47.42"/>
      <path class="st2" d="M7438.31,7202.87l-2.56,1.49c-.19.11-.3.33-.3.57v47.42"/>
    </g>
    <path class="st6" d="M7441.62,7195.44l-104.38-60.26c-.75-.43-1.68-.43-2.43,0l-36.05,20.95c-.62.36-.62,1.26,0,1.62l104.38,60.26c.75.43,1.68.43,2.43,0l36.05-20.95c.62-.36.62-1.26,0-1.62Z"/>
    <path class="st2" d="M7336.3,7138.09l98.93,57.2c.47.27.47.95,0,1.22l-28.42,16.6"/>
    <line class="st2" x1="7377.94" y1="7196.91" x2="7398.44" y2="7184.93"/>
    <line class="st2" x1="7378.84" y1="7192.25" x2="7399.35" y2="7180.28"/>
    <line class="st2" x1="7329.47" y1="7168.39" x2="7349.97" y2="7156.41"/>
    <line class="st2" x1="7330.37" y1="7163.73" x2="7350.88" y2="7151.75"/>
    <line class="st2" x1="7404.36" y1="7220.82" x2="7404.36" y2="7270.37"/>
    <g>
      <g>
        <g>
          <path class="Schaduw" d="M7307.53,7166.4l-.83-.48v46.43l1.19.69v-46.03c0-.25-.14-.48-.36-.61Z"/>
          <path class="st2" d="M7304.41,7164.58l3.12,1.81c.23.13.36.36.36.61v47.42"/>
          <path class="st2" d="M7307.9,7213.04l-2.6-1.51c-.38-.22-.81-.34-1.25-.36l-.74-.03"/>
        </g>
        <g>
          <path class="Schaduw" d="M7318.87,7172.98l-.83-.48v46.43l1.19.69v-46.03c0-.25-.14-.48-.36-.61Z"/>
          <path class="st2" d="M7315.75,7171.17l3.12,1.81c.23.13.36.36.36.61v47.42"/>
          <path class="st2" d="M7319.24,7219.62l-2.6-1.51c-.38-.22-.81-.34-1.25-.36l-.74-.03"/>
        </g>
        <g>
          <path class="Schaduw" d="M7330.21,7179.56l-.83-.48v46.43l1.19.69v-46.03c0-.25-.14-.48-.36-.61Z"/>
          <path class="st2" d="M7327.09,7177.75l3.12,1.81c.23.13.36.36.36.61v47.42"/>
          <path class="st2" d="M7330.58,7226.21l-2.6-1.51c-.38-.22-.81-.34-1.25-.36l-.74-.03"/>
        </g>
        <g>
          <path class="Schaduw" d="M7341.55,7186.15l-.83-.48v46.43l1.19.69v-46.03c0-.25-.14-.48-.36-.61Z"/>
          <path class="st2" d="M7338.43,7184.34l3.12,1.81c.23.13.36.36.36.61v47.42"/>
          <path class="st2" d="M7341.92,7232.79l-2.6-1.51c-.38-.22-.81-.34-1.25-.36l-.74-.03"/>
        </g>
        <g>
          <path class="Schaduw" d="M7352.89,7192.73l-.83-.48v46.43l1.19.69v-46.03c0-.25-.14-.48-.36-.61Z"/>
          <path class="st2" d="M7349.77,7190.92l3.12,1.81c.23.13.36.36.36.61v47.42"/>
          <path class="st2" d="M7353.26,7239.37l-2.6-1.51c-.38-.22-.81-.34-1.25-.36l-.74-.03"/>
        </g>
        <g>
          <path class="Schaduw" d="M7364.23,7199.32l-.83-.48v46.43l1.19.69v-46.03c0-.25-.14-.48-.36-.61Z"/>
          <path class="st2" d="M7361.11,7197.5l3.12,1.81c.23.13.36.36.36.61v47.42"/>
          <path class="st2" d="M7364.6,7245.96l-2.6-1.51c-.38-.22-.81-.34-1.25-.36l-.74-.03"/>
        </g>
        <g>
          <path class="Schaduw" d="M7375.57,7205.9l-.83-.48v46.43l1.19.69v-46.03c0-.25-.14-.48-.36-.61Z"/>
          <path class="st2" d="M7372.45,7204.09l3.12,1.81c.23.13.36.36.36.61v47.42"/>
          <path class="st2" d="M7375.94,7252.54l-2.6-1.51c-.38-.22-.81-.34-1.25-.36l-.74-.03"/>
        </g>
        <g>
          <path class="Schaduw" d="M7386.92,7212.48l-.83-.48v46.43l1.19.69v-46.03c0-.25-.14-.48-.36-.61Z"/>
          <path class="st2" d="M7383.79,7210.67l3.12,1.81c.23.13.36.36.36.61v47.42"/>
          <path class="st2" d="M7387.28,7259.13l-2.6-1.51c-.38-.22-.81-.34-1.25-.36l-.74-.03"/>
        </g>
        <g>
          <path class="Schaduw" d="M7398.26,7219.07l-.83-.48v46.43l1.19.69v-46.03c0-.25-.14-.48-.36-.61Z"/>
          <path class="st2" d="M7395.14,7217.26l3.12,1.81c.23.13.36.36.36.61v47.42"/>
          <path class="st2" d="M7398.62,7265.71l-2.6-1.51c-.38-.22-.81-.34-1.25-.36l-.74-.03"/>
        </g>
      </g>
      <line class="st5" x1="7392.79" y1="7215.61" x2="7392.79" y2="7263.59"/>
      <line class="st5" x1="7381.44" y1="7209.04" x2="7381.44" y2="7257.02"/>
      <line class="st5" x1="7370.1" y1="7202.47" x2="7370.1" y2="7250.45"/>
      <line class="st5" x1="7358.75" y1="7195.9" x2="7358.75" y2="7243.88"/>
      <line class="st5" x1="7347.4" y1="7189.33" x2="7347.4" y2="7237.31"/>
      <line class="st5" x1="7336.06" y1="7182.77" x2="7336.06" y2="7230.74"/>
      <line class="st5" x1="7324.71" y1="7176.2" x2="7324.71" y2="7224.17"/>
      <line class="st5" x1="7313.36" y1="7169.63" x2="7313.36" y2="7217.6"/>
      <line class="st5" x1="7302.02" y1="7163.06" x2="7302.02" y2="7211.03"/>
    </g>
    <path class="Schaduw" d="M7441.9,7195.52l-.09.05c.43.41.37,1.16-.18,1.48l-36.05,20.95c-.38.22-.79.33-1.21.33v55.07c.43,0,.86-.11,1.25-.34l36.17-21.02c.77-.45,1.24-1.27,1.24-2.15v-52.28c0-.84-.42-1.62-1.12-2.08Z"/>
  </g>
  <g>
    <path class="st12" d="M7271.78,7177.12l-36.14,21c-.77.45-1.24,1.27-1.24,2.15l-.03,52.3c0,.89.47,1.71,1.25,2.16l104.5,60.33c.77.45,1.73.44,2.5,0l36.17-21.02c.77-.45,1.24-1.27,1.24-2.15v-52.28c0-.89-.47-1.71-1.25-2.16l-104.5-60.33c-.77-.45-1.73-.44-2.5,0Z"/>
    <g>
      <path class="st2" d="M7344.51,7309.19l2.13-1.24c.31-.18.66-.26,1.02-.23l.6.05"/>
      <path class="st2" d="M7353.82,7303.78l2.13-1.24c.31-.18.66-.26,1.02-.23l.6.05"/>
      <path class="st2" d="M7363.14,7298.37l2.13-1.24c.31-.18.66-.26,1.02-.23l.6.05"/>
      <path class="st2" d="M7372.45,7292.96l2.13-1.24c.31-.18.66-.26,1.02-.23l.6.05"/>
      <line class="st2" x1="7377.26" y1="7243.54" x2="7377.26" y2="7291.52"/>
      <line class="st2" x1="7367.95" y1="7248.96" x2="7367.95" y2="7296.94"/>
      <line class="st2" x1="7358.64" y1="7254.39" x2="7358.64" y2="7302.36"/>
      <line class="st2" x1="7349.33" y1="7259.81" x2="7349.33" y2="7307.78"/>
      <path class="st11" d="M7349.33,7259.81h0c-.59,0-1.07,1.52-1.07,2.11v44.77c0,.59.48,1.07,1.07,1.07h0v-47.95Z"/>
      <path class="st11" d="M7358.64,7254.41h0c-.59,0-1.07,1.52-1.07,2.11v44.77c0,.59.48,1.07,1.07,1.07h0v-47.95Z"/>
      <path class="st11" d="M7367.95,7248.99h0c-.59,0-1.07,1.52-1.07,2.11v44.77c0,.59.48,1.07,1.07,1.07h0v-47.95Z"/>
      <path class="st11" d="M7377.26,7243.57h0c-.59,0-1.07,1.52-1.07,2.11v44.77c0,.59.48,1.07,1.07,1.07h0v-47.95Z"/>
      <path class="st2" d="M7347.37,7261.09l-2.56,1.49c-.19.11-.3.33-.3.57v47.42"/>
      <path class="st2" d="M7356.68,7255.68l-2.56,1.49c-.19.11-.3.33-.3.57v47.42"/>
      <path class="st2" d="M7366,7250.27l-2.56,1.49c-.19.11-.3.33-.3.57v47.42"/>
      <path class="st2" d="M7375.31,7244.87l-2.56,1.49c-.19.11-.3.33-.3.57v47.42"/>
    </g>
    <path class="st6" d="M7378.62,7237.44l-104.38-60.26c-.75-.43-1.68-.43-2.43,0l-36.05,20.95c-.62.36-.62,1.26,0,1.62l104.38,60.26c.75.43,1.68.43,2.43,0l36.05-20.95c.62-.36.62-1.26,0-1.62Z"/>
    <path class="st2" d="M7273.3,7180.09l98.93,57.2c.47.27.47.95,0,1.22l-28.42,16.6"/>
    <line class="st2" x1="7314.94" y1="7238.91" x2="7335.44" y2="7226.93"/>
    <line class="st2" x1="7315.84" y1="7234.25" x2="7336.35" y2="7222.28"/>
    <line class="st2" x1="7266.47" y1="7210.39" x2="7286.97" y2="7198.41"/>
    <line class="st2" x1="7267.37" y1="7205.73" x2="7287.88" y2="7193.75"/>
    <line class="st2" x1="7341.36" y1="7262.82" x2="7341.36" y2="7312.37"/>
    <g>
      <g>
        <g>
          <path class="Schaduw" d="M7244.53,7208.4l-.83-.48v46.43l1.19.69v-46.03c0-.25-.14-.48-.36-.61Z"/>
          <path class="st2" d="M7241.41,7206.58l3.12,1.81c.23.13.36.36.36.61v47.42"/>
          <path class="st2" d="M7244.9,7255.04l-2.6-1.51c-.38-.22-.81-.34-1.25-.36l-.74-.03"/>
        </g>
        <g>
          <path class="Schaduw" d="M7255.87,7214.98l-.83-.48v46.43l1.19.69v-46.03c0-.25-.14-.48-.36-.61Z"/>
          <path class="st2" d="M7252.75,7213.17l3.12,1.81c.23.13.36.36.36.61v47.42"/>
          <path class="st2" d="M7256.24,7261.62l-2.6-1.51c-.38-.22-.81-.34-1.25-.36l-.74-.03"/>
        </g>
        <g>
          <path class="Schaduw" d="M7267.21,7221.56l-.83-.48v46.43l1.19.69v-46.03c0-.25-.14-.48-.36-.61Z"/>
          <path class="st2" d="M7264.09,7219.75l3.12,1.81c.23.13.36.36.36.61v47.42"/>
          <path class="st2" d="M7267.58,7268.21l-2.6-1.51c-.38-.22-.81-.34-1.25-.36l-.74-.03"/>
        </g>
        <g>
          <path class="Schaduw" d="M7278.55,7228.15l-.83-.48v46.43l1.19.69v-46.03c0-.25-.14-.48-.36-.61Z"/>
          <path class="st2" d="M7275.43,7226.34l3.12,1.81c.23.13.36.36.36.61v47.42"/>
          <path class="st2" d="M7278.92,7274.79l-2.6-1.51c-.38-.22-.81-.34-1.25-.36l-.74-.03"/>
        </g>
        <g>
          <path class="Schaduw" d="M7289.89,7234.73l-.83-.48v46.43l1.19.69v-46.03c0-.25-.14-.48-.36-.61Z"/>
          <path class="st2" d="M7286.77,7232.92l3.12,1.81c.23.13.36.36.36.61v47.42"/>
          <path class="st2" d="M7290.26,7281.37l-2.6-1.51c-.38-.22-.81-.34-1.25-.36l-.74-.03"/>
        </g>
        <g>
          <path class="Schaduw" d="M7301.23,7241.32l-.83-.48v46.43l1.19.69v-46.03c0-.25-.14-.48-.36-.61Z"/>
          <path class="st2" d="M7298.11,7239.5l3.12,1.81c.23.13.36.36.36.61v47.42"/>
          <path class="st2" d="M7301.6,7287.96l-2.6-1.51c-.38-.22-.81-.34-1.25-.36l-.74-.03"/>
        </g>
        <g>
          <path class="Schaduw" d="M7312.57,7247.9l-.83-.48v46.43l1.19.69v-46.03c0-.25-.14-.48-.36-.61Z"/>
          <path class="st2" d="M7309.45,7246.09l3.12,1.81c.23.13.36.36.36.61v47.42"/>
          <path class="st2" d="M7312.94,7294.54l-2.6-1.51c-.38-.22-.81-.34-1.25-.36l-.74-.03"/>
        </g>
        <g>
          <path class="Schaduw" d="M7323.92,7254.48l-.83-.48v46.43l1.19.69v-46.03c0-.25-.14-.48-.36-.61Z"/>
          <path class="st2" d="M7320.79,7252.67l3.12,1.81c.23.13.36.36.36.61v47.42"/>
          <path class="st2" d="M7324.28,7301.13l-2.6-1.51c-.38-.22-.81-.34-1.25-.36l-.74-.03"/>
        </g>
        <g>
          <path class="Schaduw" d="M7335.26,7261.07l-.83-.48v46.43l1.19.69v-46.03c0-.25-.14-.48-.36-.61Z"/>
          <path class="st2" d="M7332.14,7259.26l3.12,1.81c.23.13.36.36.36.61v47.42"/>
          <path class="st2" d="M7335.62,7307.71l-2.6-1.51c-.38-.22-.81-.34-1.25-.36l-.74-.03"/>
        </g>
      </g>
      <line class="st5" x1="7329.79" y1="7257.61" x2="7329.79" y2="7305.59"/>
      <line class="st5" x1="7318.44" y1="7251.04" x2="7318.44" y2="7299.02"/>
      <line class="st5" x1="7307.1" y1="7244.47" x2="7307.1" y2="7292.45"/>
      <line class="st5" x1="7295.75" y1="7237.9" x2="7295.75" y2="7285.88"/>
      <line class="st5" x1="7284.4" y1="7231.33" x2="7284.4" y2="7279.31"/>
      <line class="st5" x1="7273.06" y1="7224.77" x2="7273.06" y2="7272.74"/>
      <line class="st5" x1="7261.71" y1="7218.2" x2="7261.71" y2="7266.17"/>
      <line class="st5" x1="7250.36" y1="7211.63" x2="7250.36" y2="7259.6"/>
      <line class="st5" x1="7239.02" y1="7205.06" x2="7239.02" y2="7253.03"/>
    </g>
    <path class="Schaduw" d="M7378.9,7237.52l-.09.05c.43.41.37,1.16-.18,1.48l-36.05,20.95c-.38.22-.79.33-1.21.33v55.07c.43,0,.86-.11,1.25-.34l36.17-21.02c.77-.45,1.24-1.27,1.24-2.15v-52.28c0-.84-.42-1.62-1.12-2.08Z"/>
  </g>
  <g>
    <path class="st12" d="M7082.78,6996.12l-36.14,21c-.77.45-1.24,1.27-1.24,2.15l-.03,52.3c0,.89.47,1.71,1.25,2.16l104.5,60.33c.77.45,1.73.44,2.5,0l36.17-21.02c.77-.45,1.24-1.27,1.24-2.15v-52.28c0-.89-.47-1.71-1.25-2.16l-104.5-60.33c-.77-.45-1.73-.44-2.5,0Z"/>
    <g>
      <path class="st2" d="M7155.51,7128.19l2.13-1.24c.31-.18.66-.26,1.02-.23l.6.05"/>
      <path class="st2" d="M7164.82,7122.78l2.13-1.24c.31-.18.66-.26,1.02-.23l.6.05"/>
      <path class="st2" d="M7174.14,7117.37l2.13-1.24c.31-.18.66-.26,1.02-.23l.6.05"/>
      <path class="st2" d="M7183.45,7111.96l2.13-1.24c.31-.18.66-.26,1.02-.23l.6.05"/>
      <line class="st2" x1="7188.26" y1="7062.54" x2="7188.26" y2="7110.52"/>
      <line class="st2" x1="7178.95" y1="7067.96" x2="7178.95" y2="7115.94"/>
      <line class="st2" x1="7169.64" y1="7073.39" x2="7169.64" y2="7121.36"/>
      <line class="st2" x1="7160.33" y1="7078.81" x2="7160.33" y2="7126.78"/>
      <path class="st11" d="M7160.33,7078.81h0c-.59,0-1.07,1.52-1.07,2.11v44.77c0,.59.48,1.07,1.07,1.07h0v-47.95Z"/>
      <path class="st11" d="M7169.64,7073.41h0c-.59,0-1.07,1.52-1.07,2.11v44.77c0,.59.48,1.07,1.07,1.07h0v-47.95Z"/>
      <path class="st11" d="M7178.95,7067.99h0c-.59,0-1.07,1.52-1.07,2.11v44.77c0,.59.48,1.07,1.07,1.07h0v-47.95Z"/>
      <path class="st11" d="M7188.26,7062.57h0c-.59,0-1.07,1.52-1.07,2.11v44.77c0,.59.48,1.07,1.07,1.07h0v-47.95Z"/>
      <path class="st2" d="M7158.37,7080.09l-2.56,1.49c-.19.11-.3.33-.3.57v47.42"/>
      <path class="st2" d="M7167.68,7074.68l-2.56,1.49c-.19.11-.3.33-.3.57v47.42"/>
      <path class="st2" d="M7177,7069.27l-2.56,1.49c-.19.11-.3.33-.3.57v47.42"/>
      <path class="st2" d="M7186.31,7063.87l-2.56,1.49c-.19.11-.3.33-.3.57v47.42"/>
    </g>
    <path class="st6" d="M7189.62,7056.44l-104.38-60.26c-.75-.43-1.68-.43-2.43,0l-36.05,20.95c-.62.36-.62,1.26,0,1.62l104.38,60.26c.75.43,1.68.43,2.43,0l36.05-20.95c.62-.36.62-1.26,0-1.62Z"/>
    <path class="st2" d="M7084.3,6999.09l98.93,57.2c.47.27.47.95,0,1.22l-28.42,16.6"/>
    <line class="st2" x1="7125.94" y1="7057.91" x2="7146.44" y2="7045.93"/>
    <line class="st2" x1="7126.84" y1="7053.25" x2="7147.35" y2="7041.28"/>
    <line class="st2" x1="7077.47" y1="7029.39" x2="7097.97" y2="7017.41"/>
    <line class="st2" x1="7078.37" y1="7024.73" x2="7098.88" y2="7012.75"/>
    <line class="st2" x1="7152.36" y1="7081.82" x2="7152.36" y2="7131.37"/>
    <g>
      <g>
        <g>
          <path class="Schaduw" d="M7055.53,7027.4l-.83-.48v46.43l1.19.69v-46.03c0-.25-.14-.48-.36-.61Z"/>
          <path class="st2" d="M7052.41,7025.58l3.12,1.81c.23.13.36.36.36.61v47.42"/>
          <path class="st2" d="M7055.9,7074.04l-2.6-1.51c-.38-.22-.81-.34-1.25-.36l-.74-.03"/>
        </g>
        <g>
          <path class="Schaduw" d="M7066.87,7033.98l-.83-.48v46.43l1.19.69v-46.03c0-.25-.14-.48-.36-.61Z"/>
          <path class="st2" d="M7063.75,7032.17l3.12,1.81c.23.13.36.36.36.61v47.42"/>
          <path class="st2" d="M7067.24,7080.62l-2.6-1.51c-.38-.22-.81-.34-1.25-.36l-.74-.03"/>
        </g>
        <g>
          <path class="Schaduw" d="M7078.21,7040.56l-.83-.48v46.43l1.19.69v-46.03c0-.25-.14-.48-.36-.61Z"/>
          <path class="st2" d="M7075.09,7038.75l3.12,1.81c.23.13.36.36.36.61v47.42"/>
          <path class="st2" d="M7078.58,7087.21l-2.6-1.51c-.38-.22-.81-.34-1.25-.36l-.74-.03"/>
        </g>
        <g>
          <path class="Schaduw" d="M7089.55,7047.15l-.83-.48v46.43l1.19.69v-46.03c0-.25-.14-.48-.36-.61Z"/>
          <path class="st2" d="M7086.43,7045.34l3.12,1.81c.23.13.36.36.36.61v47.42"/>
          <path class="st2" d="M7089.92,7093.79l-2.6-1.51c-.38-.22-.81-.34-1.25-.36l-.74-.03"/>
        </g>
        <g>
          <path class="Schaduw" d="M7100.89,7053.73l-.83-.48v46.43l1.19.69v-46.03c0-.25-.14-.48-.36-.61Z"/>
          <path class="st2" d="M7097.77,7051.92l3.12,1.81c.23.13.36.36.36.61v47.42"/>
          <path class="st2" d="M7101.26,7100.37l-2.6-1.51c-.38-.22-.81-.34-1.25-.36l-.74-.03"/>
        </g>
        <g>
          <path class="Schaduw" d="M7112.23,7060.32l-.83-.48v46.43l1.19.69v-46.03c0-.25-.14-.48-.36-.61Z"/>
          <path class="st2" d="M7109.11,7058.5l3.12,1.81c.23.13.36.36.36.61v47.42"/>
          <path class="st2" d="M7112.6,7106.96l-2.6-1.51c-.38-.22-.81-.34-1.25-.36l-.74-.03"/>
        </g>
        <g>
          <path class="Schaduw" d="M7123.57,7066.9l-.83-.48v46.43l1.19.69v-46.03c0-.25-.14-.48-.36-.61Z"/>
          <path class="st2" d="M7120.45,7065.09l3.12,1.81c.23.13.36.36.36.61v47.42"/>
          <path class="st2" d="M7123.94,7113.54l-2.6-1.51c-.38-.22-.81-.34-1.25-.36l-.74-.03"/>
        </g>
        <g>
          <path class="Schaduw" d="M7134.92,7073.48l-.83-.48v46.43l1.19.69v-46.03c0-.25-.14-.48-.36-.61Z"/>
          <path class="st2" d="M7131.79,7071.67l3.12,1.81c.23.13.36.36.36.61v47.42"/>
          <path class="st2" d="M7135.28,7120.13l-2.6-1.51c-.38-.22-.81-.34-1.25-.36l-.74-.03"/>
        </g>
        <g>
          <path class="Schaduw" d="M7146.26,7080.07l-.83-.48v46.43l1.19.69v-46.03c0-.25-.14-.48-.36-.61Z"/>
          <path class="st2" d="M7143.14,7078.26l3.12,1.81c.23.13.36.36.36.61v47.42"/>
          <path class="st2" d="M7146.62,7126.71l-2.6-1.51c-.38-.22-.81-.34-1.25-.36l-.74-.03"/>
        </g>
      </g>
      <line class="st5" x1="7140.79" y1="7076.61" x2="7140.79" y2="7124.59"/>
      <line class="st5" x1="7129.44" y1="7070.04" x2="7129.44" y2="7118.02"/>
      <line class="st5" x1="7118.1" y1="7063.47" x2="7118.1" y2="7111.45"/>
      <line class="st5" x1="7106.75" y1="7056.9" x2="7106.75" y2="7104.88"/>
      <line class="st5" x1="7095.4" y1="7050.33" x2="7095.4" y2="7098.31"/>
      <line class="st5" x1="7084.06" y1="7043.77" x2="7084.06" y2="7091.74"/>
      <line class="st5" x1="7072.71" y1="7037.2" x2="7072.71" y2="7085.17"/>
      <line class="st5" x1="7061.36" y1="7030.63" x2="7061.36" y2="7078.6"/>
      <line class="st5" x1="7050.02" y1="7024.06" x2="7050.02" y2="7072.03"/>
    </g>
    <path class="Schaduw" d="M7189.9,7056.52l-.09.05c.43.41.37,1.16-.18,1.48l-36.05,20.95c-.38.22-.79.33-1.21.33v55.07c.43,0,.86-.11,1.25-.34l36.17-21.02c.77-.45,1.24-1.27,1.24-2.15v-52.28c0-.84-.42-1.62-1.12-2.08Z"/>
  </g>
  <g>
    <path class="st12" d="M7026.78,7027.12l-36.14,21c-.77.45-1.24,1.27-1.24,2.15l-.03,52.3c0,.89.47,1.71,1.25,2.16l104.5,60.33c.77.45,1.73.44,2.5,0l36.17-21.02c.77-.45,1.24-1.27,1.24-2.15v-52.28c0-.89-.47-1.71-1.25-2.16l-104.5-60.33c-.77-.45-1.73-.44-2.5,0Z"/>
    <g>
      <path class="st2" d="M7099.51,7159.19l2.13-1.24c.31-.18.66-.26,1.02-.23l.6.05"/>
      <path class="st2" d="M7108.82,7153.78l2.13-1.24c.31-.18.66-.26,1.02-.23l.6.05"/>
      <path class="st2" d="M7118.14,7148.37l2.13-1.24c.31-.18.66-.26,1.02-.23l.6.05"/>
      <path class="st2" d="M7127.45,7142.96l2.13-1.24c.31-.18.66-.26,1.02-.23l.6.05"/>
      <line class="st2" x1="7132.26" y1="7093.54" x2="7132.26" y2="7141.52"/>
      <line class="st2" x1="7122.95" y1="7098.96" x2="7122.95" y2="7146.94"/>
      <line class="st2" x1="7113.64" y1="7104.39" x2="7113.64" y2="7152.36"/>
      <line class="st2" x1="7104.33" y1="7109.81" x2="7104.33" y2="7157.78"/>
      <path class="st11" d="M7104.33,7109.81h0c-.59,0-1.07,1.52-1.07,2.11v44.77c0,.59.48,1.07,1.07,1.07h0v-47.95Z"/>
      <path class="st11" d="M7113.64,7104.41h0c-.59,0-1.07,1.52-1.07,2.11v44.77c0,.59.48,1.07,1.07,1.07h0v-47.95Z"/>
      <path class="st11" d="M7122.95,7098.99h0c-.59,0-1.07,1.52-1.07,2.11v44.77c0,.59.48,1.07,1.07,1.07h0v-47.95Z"/>
      <path class="st11" d="M7132.26,7093.57h0c-.59,0-1.07,1.52-1.07,2.11v44.77c0,.59.48,1.07,1.07,1.07h0v-47.95Z"/>
      <path class="st2" d="M7102.37,7111.09l-2.56,1.49c-.19.11-.3.33-.3.57v47.42"/>
      <path class="st2" d="M7111.68,7105.68l-2.56,1.49c-.19.11-.3.33-.3.57v47.42"/>
      <path class="st2" d="M7121,7100.27l-2.56,1.49c-.19.11-.3.33-.3.57v47.42"/>
      <path class="st2" d="M7130.31,7094.87l-2.56,1.49c-.19.11-.3.33-.3.57v47.42"/>
    </g>
    <path class="st6" d="M7133.62,7087.44l-104.38-60.26c-.75-.43-1.68-.43-2.43,0l-36.05,20.95c-.62.36-.62,1.26,0,1.62l104.38,60.26c.75.43,1.68.43,2.43,0l36.05-20.95c.62-.36.62-1.26,0-1.62Z"/>
    <path class="st2" d="M7028.3,7030.09l98.93,57.2c.47.27.47.95,0,1.22l-28.42,16.6"/>
    <line class="st2" x1="7069.94" y1="7088.91" x2="7090.44" y2="7076.93"/>
    <line class="st2" x1="7070.84" y1="7084.25" x2="7091.35" y2="7072.28"/>
    <line class="st2" x1="7021.47" y1="7060.39" x2="7041.97" y2="7048.41"/>
    <line class="st2" x1="7022.37" y1="7055.73" x2="7042.88" y2="7043.75"/>
    <line class="st2" x1="7096.36" y1="7112.82" x2="7096.36" y2="7162.37"/>
    <g>
      <g>
        <g>
          <path class="Schaduw" d="M6999.53,7058.4l-.83-.48v46.43l1.19.69v-46.03c0-.25-.14-.48-.36-.61Z"/>
          <path class="st2" d="M6996.41,7056.58l3.12,1.81c.23.13.36.36.36.61v47.42"/>
          <path class="st2" d="M6999.9,7105.04l-2.6-1.51c-.38-.22-.81-.34-1.25-.36l-.74-.03"/>
        </g>
        <g>
          <path class="Schaduw" d="M7010.87,7064.98l-.83-.48v46.43l1.19.69v-46.03c0-.25-.14-.48-.36-.61Z"/>
          <path class="st2" d="M7007.75,7063.17l3.12,1.81c.23.13.36.36.36.61v47.42"/>
          <path class="st2" d="M7011.24,7111.62l-2.6-1.51c-.38-.22-.81-.34-1.25-.36l-.74-.03"/>
        </g>
        <g>
          <path class="Schaduw" d="M7022.21,7071.56l-.83-.48v46.43l1.19.69v-46.03c0-.25-.14-.48-.36-.61Z"/>
          <path class="st2" d="M7019.09,7069.75l3.12,1.81c.23.13.36.36.36.61v47.42"/>
          <path class="st2" d="M7022.58,7118.21l-2.6-1.51c-.38-.22-.81-.34-1.25-.36l-.74-.03"/>
        </g>
        <g>
          <path class="Schaduw" d="M7033.55,7078.15l-.83-.48v46.43l1.19.69v-46.03c0-.25-.14-.48-.36-.61Z"/>
          <path class="st2" d="M7030.43,7076.34l3.12,1.81c.23.13.36.36.36.61v47.42"/>
          <path class="st2" d="M7033.92,7124.79l-2.6-1.51c-.38-.22-.81-.34-1.25-.36l-.74-.03"/>
        </g>
        <g>
          <path class="Schaduw" d="M7044.89,7084.73l-.83-.48v46.43l1.19.69v-46.03c0-.25-.14-.48-.36-.61Z"/>
          <path class="st2" d="M7041.77,7082.92l3.12,1.81c.23.13.36.36.36.61v47.42"/>
          <path class="st2" d="M7045.26,7131.37l-2.6-1.51c-.38-.22-.81-.34-1.25-.36l-.74-.03"/>
        </g>
        <g>
          <path class="Schaduw" d="M7056.23,7091.32l-.83-.48v46.43l1.19.69v-46.03c0-.25-.14-.48-.36-.61Z"/>
          <path class="st2" d="M7053.11,7089.5l3.12,1.81c.23.13.36.36.36.61v47.42"/>
          <path class="st2" d="M7056.6,7137.96l-2.6-1.51c-.38-.22-.81-.34-1.25-.36l-.74-.03"/>
        </g>
        <g>
          <path class="Schaduw" d="M7067.57,7097.9l-.83-.48v46.43l1.19.69v-46.03c0-.25-.14-.48-.36-.61Z"/>
          <path class="st2" d="M7064.45,7096.09l3.12,1.81c.23.13.36.36.36.61v47.42"/>
          <path class="st2" d="M7067.94,7144.54l-2.6-1.51c-.38-.22-.81-.34-1.25-.36l-.74-.03"/>
        </g>
        <g>
          <path class="Schaduw" d="M7078.92,7104.48l-.83-.48v46.43l1.19.69v-46.03c0-.25-.14-.48-.36-.61Z"/>
          <path class="st2" d="M7075.79,7102.67l3.12,1.81c.23.13.36.36.36.61v47.42"/>
          <path class="st2" d="M7079.28,7151.13l-2.6-1.51c-.38-.22-.81-.34-1.25-.36l-.74-.03"/>
        </g>
        <g>
          <path class="Schaduw" d="M7090.26,7111.07l-.83-.48v46.43l1.19.69v-46.03c0-.25-.14-.48-.36-.61Z"/>
          <path class="st2" d="M7087.14,7109.26l3.12,1.81c.23.13.36.36.36.61v47.42"/>
          <path class="st2" d="M7090.62,7157.71l-2.6-1.51c-.38-.22-.81-.34-1.25-.36l-.74-.03"/>
        </g>
      </g>
      <line class="st5" x1="7084.79" y1="7107.61" x2="7084.79" y2="7155.59"/>
      <line class="st5" x1="7073.44" y1="7101.04" x2="7073.44" y2="7149.02"/>
      <line class="st5" x1="7062.1" y1="7094.47" x2="7062.1" y2="7142.45"/>
      <line class="st5" x1="7050.75" y1="7087.9" x2="7050.75" y2="7135.88"/>
      <line class="st5" x1="7039.4" y1="7081.33" x2="7039.4" y2="7129.31"/>
      <line class="st5" x1="7028.06" y1="7074.77" x2="7028.06" y2="7122.74"/>
      <line class="st5" x1="7016.71" y1="7068.2" x2="7016.71" y2="7116.17"/>
      <line class="st5" x1="7005.36" y1="7061.63" x2="7005.36" y2="7109.6"/>
      <line class="st5" x1="6994.02" y1="7055.06" x2="6994.02" y2="7103.03"/>
    </g>
    <path class="Schaduw" d="M7133.9,7087.52l-.09.05c.43.41.37,1.16-.18,1.48l-36.05,20.95c-.38.22-.79.33-1.21.33v55.07c.43,0,.86-.11,1.25-.34l36.17-21.02c.77-.45,1.24-1.27,1.24-2.15v-52.28c0-.84-.42-1.62-1.12-2.08Z"/>
  </g>
</svg>